Coordinates
version=1
nRows=60
nColumns=12
inDegrees=yes

Units are S.I. units (second, meters, Newtons, ...)
Angles are in degrees

endheader
time	SC_y	SC_z	SC_x	AC_y	AC_z	AC_x	GH_y	GH_z	GH_yy	EL_x	PS_y
       0.0              -55.56          -2.38          44.23          60.49          -4.68         -12.56         -75.72          19.53         -135.2          130.0          10.42
   0.03114              -55.55         -2.376          44.23          60.49         -4.681         -12.56          -75.7          19.53         -135.2          129.9          10.44
   0.06228              -55.55         -2.371          44.22          60.49         -4.683         -12.55         -75.68          19.53         -135.2          129.9          10.46
   0.09343              -55.55         -2.365          44.21          60.48         -4.685         -12.55         -75.66          19.53         -135.2          129.9          10.48
    0.1246              -55.55         -2.359          44.21          60.48         -4.687         -12.54         -75.64          19.53         -135.2          129.9           10.5
    0.1557              -55.54         -2.353           44.2          60.47          -4.69         -12.54         -75.62          19.52         -135.2          129.9          10.53
    0.1869              -55.54         -2.347          44.19          60.47         -4.692         -12.54          -75.6          19.52         -135.3          129.8          10.55
     0.218              -55.53          -2.34          44.19          60.46         -4.695         -12.53         -75.57          19.52         -135.3          129.8          10.58
    0.2491              -55.53         -2.333          44.18          60.46         -4.697         -12.53         -75.55          19.52         -135.3          129.8          10.61
    0.2803              -55.53         -2.325          44.17          60.45           -4.7         -12.52         -75.52          19.52         -135.3          129.8          10.64
    0.3114              -55.52         -2.316          44.16          60.44         -4.704         -12.51         -75.49          19.52         -135.3          129.7          10.67
    0.3426              -55.52         -2.307          44.15          60.44         -4.707         -12.51         -75.45          19.51         -135.3          129.7           10.7
    0.3737              -55.51         -2.297          44.14          60.43         -4.711          -12.5         -75.42          19.51         -135.3          129.7          10.74
    0.4049               -55.5         -2.286          44.13          60.42         -4.715         -12.49         -75.38          19.51         -135.3          129.6          10.78
     0.436               -55.5         -2.274          44.11          60.41         -4.719         -12.49         -75.34          19.51         -135.3          129.6          10.83
    0.4671              -55.49         -2.262           44.1           60.4         -4.724         -12.48         -75.29           19.5         -135.4          129.5          10.87
    0.4983              -55.48         -2.248          44.08          60.39         -4.729         -12.47         -75.24           19.5         -135.4          129.5          10.93
    0.5294              -55.47         -2.233          44.07          60.38         -4.734         -12.46         -75.19          19.49         -135.4          129.4          10.98
    0.5606              -55.47         -2.217          44.05          60.37          -4.74         -12.45         -75.13          19.49         -135.4          129.4          11.05
    0.5917              -55.46         -2.199          44.03          60.35         -4.747         -12.43         -75.07          19.49         -135.4          129.3          11.11
    0.6228              -55.44         -2.179           44.0          60.34         -4.754         -12.42         -74.99          19.48         -135.5          129.3          11.19
     0.654              -55.43         -2.158          43.98          60.32         -4.762         -12.41         -74.92          19.48         -135.5          129.2          11.27
    0.6851              -55.42         -2.134          43.95           60.3         -4.771         -12.39         -74.83          19.47         -135.5          129.1          11.36
    0.7163               -55.4         -2.108          43.92          60.28         -4.781         -12.37         -74.74          19.46         -135.6          129.0          11.46
    0.7474              -55.39         -2.078          43.89          60.26         -4.792         -12.35         -74.63          19.46         -135.6          128.9          11.57
    0.7786              -55.37         -2.046          43.85          60.24         -4.804         -12.33         -74.51          19.45         -135.6          128.8           11.7
    0.8097              -55.35         -2.009          43.81          60.21         -4.817          -12.3         -74.38          19.44         -135.7          128.7          11.84
    0.8408              -55.33         -1.968          43.77          60.18         -4.833         -12.28         -74.23          19.43         -135.7          128.5          11.99
     0.872               -55.3         -1.921          43.71          60.14          -4.85         -12.24         -74.07          19.42         -135.8          128.4          12.17
    0.9031              -55.27         -1.868          43.65           60.1          -4.87         -12.21         -73.87           19.4         -135.9          128.2          12.37
    0.9343              -55.24         -1.808          43.58          60.05         -4.892         -12.17         -73.66          19.39         -135.9          128.0           12.6
    0.9654               -55.2         -1.738          43.51           60.0         -4.918         -12.12         -73.41          19.37         -136.0          127.7          12.87
    0.9966              -55.15         -1.658          43.42          59.94         -4.947         -12.07         -73.12          19.35         -136.1          127.5          13.17
     1.028               -55.1         -1.565          43.31          59.87         -4.982          -12.0         -72.79          19.33         -136.2          127.1          13.52
     1.059              -55.04         -1.457          43.19          59.78         -5.022         -11.93         -72.39           19.3         -136.4          126.8          13.94
      1.09              -54.97         -1.328          43.04          59.69          -5.07         -11.84         -71.93          19.27         -136.6          126.3          14.43
     1.121              -54.88         -1.176          42.87          59.57         -5.126         -11.73         -71.38          19.23         -136.7          125.8          15.01
     1.152              -54.78        -0.9932          42.66          59.43         -5.194         -11.61         -70.73          19.18         -137.0          125.2           15.7
     1.183              -54.66        -0.7721          42.41          59.26         -5.276         -11.46         -69.93          19.13         -137.3          124.4          16.54
     1.215               -54.5         -0.502          42.11          59.05         -5.376         -11.27         -68.96          19.06         -137.6          123.5          17.57
     1.246              -54.32        -0.1688          41.73           58.8           -5.5         -11.05         -67.76          18.98         -138.0          122.3          18.84
     1.277              -54.08         0.2469          41.26          58.48         -5.654         -10.76         -66.26          18.88         -138.6          120.9          20.42
     1.308              -53.79         0.7704          40.67          58.07         -5.848          -10.4         -64.38          18.74         -139.2          119.1          22.41
     1.339              -53.42          1.436          39.92          57.56         -6.095         -9.948         -61.99          18.58         -140.1          116.8          24.95
      1.37              -52.94          2.288          38.96          56.91         -6.411         -9.365         -58.92          18.37         -141.2          113.8          28.19
     1.401              -52.33          3.381          37.72          56.07         -6.816         -8.617         -54.99          18.09         -142.6          110.0          32.35
     1.433              -51.54          4.778          36.14           55.0         -7.334         -7.662         -49.96          17.74         -144.3          105.2          37.66
     1.464              -50.56          6.533          34.16          53.65         -7.985          -6.46         -43.65           17.3         -146.6          99.14          44.35
     1.495              -49.36          8.673          31.74          52.01         -8.778         -4.996         -35.95          16.77         -149.3          91.74          52.49
     1.526              -47.97          11.15          28.93           50.1         -9.698           -3.3         -27.02          16.15         -152.5          83.16          61.93
     1.557              -46.46          13.84           25.9          48.04         -10.69         -1.462         -17.36          15.48         -155.9          73.88          72.15
     1.588              -44.96          16.52          22.86          45.98         -11.69         0.3752         -7.697          14.81         -159.3           64.6          82.37
     1.619              -43.57           19.0          20.06          44.07         -12.61          2.072          1.227          14.19         -162.5          56.02          91.81
     1.651              -42.37          21.14          17.64          42.43          -13.4          3.536          8.926          13.65         -165.2          48.62          99.95
     1.682              -41.38           22.9          15.66          41.08         -14.05          4.737          15.24          13.22         -167.4          42.55          106.6
     1.713               -40.6           24.3          14.08          40.01         -14.57          5.693          20.27          12.87         -169.2          37.73          111.9
     1.744              -39.99          25.39          12.84          39.17         -14.98          6.441           24.2          12.59         -170.6          33.95          116.1
     1.775              -39.51          26.24          11.88          38.52         -15.29          7.024          27.27          12.38         -171.7           31.0          119.3
     1.806              -39.14          26.91          11.13           38.0         -15.54          7.479          29.66          12.21         -172.6           28.7          121.9
     1.837              -38.84          27.43          10.54           37.6         -15.73          7.837          31.55          12.08         -173.2          26.89          123.9
